<svg xmlns="http://www.w3.org/2000/svg" version="1.1" xmlns:xlink="http://www.w3.org/1999/xlink" width="512" height="512" x="0" y="0" viewBox="0 0 24 24" style="enable-background:new 0 0 512 512" xml:space="preserve" fill-rule="evenodd" class=""><g><circle cx="11.5" cy="6.744" r="5.5" fill="#5d5fef" opacity="1"></circle><path d="M17.5 13.938a3.564 3.564 0 0 0 0 7.125c1.966 0 3.563-1.597 3.563-3.563s-1.597-3.562-3.563-3.562zm0 1.5c1.138 0 2.063.924 2.063 2.062s-.925 2.063-2.063 2.063-2.063-.925-2.063-2.063.925-2.062 2.063-2.062z" fill="#5d5fef" opacity="1"></path><path d="M18.25 14.687V13a.75.75 0 0 0-1.5 0v1.688a.75.75 0 0 0 1.5-.001zM20.019 16.042l1.193-1.194a.749.749 0 1 0-1.06-1.06l-1.194 1.193a.752.752 0 0 0 0 1.061.752.752 0 0 0 1.061 0zM20.312 18.25H22a.75.75 0 0 0 0-1.5h-1.688a.75.75 0 0 0 0 1.5zM18.958 20.019l1.194 1.193a.749.749 0 1 0 1.06-1.06l-1.193-1.194a.752.752 0 0 0-1.061 0 .752.752 0 0 0 0 1.061zM16.75 20.312V22a.75.75 0 0 0 1.5 0v-1.688a.75.75 0 0 0-1.5 0zM14.981 18.958l-1.193 1.194a.749.749 0 1 0 1.06 1.06l1.194-1.193a.752.752 0 0 0 0-1.061.752.752 0 0 0-1.061 0zM14.687 16.75H13a.75.75 0 0 0 0 1.5h1.687a.75.75 0 1 0 0-1.5zM16.042 14.981l-1.194-1.193a.749.749 0 1 0-1.06 1.06l1.193 1.194a.752.752 0 0 0 1.061 0 .752.752 0 0 0 0-1.061z" fill="#5d5fef" opacity="1"></path><path d="M12.936 21.756a1.751 1.751 0 0 1 .145-2.311l.194-.195H13a1.75 1.75 0 0 1 0-3.5h.275l-.194-.195a1.75 1.75 0 0 1-.078-2.391 19.45 19.45 0 0 0-1.503-.058c-3.322 0-6.263.831-8.089 2.076-1.393.95-2.161 2.157-2.161 3.424v1.45a1.697 1.697 0 0 0 1.7 1.7z" fill="#5d5fef" opacity="1"></path></g></svg>