<svg xmlns="http://www.w3.org/2000/svg" width="12" height="12" viewBox="0 0 12 12" fill="none">
  <path d="M6 6.00313L1.524 4.21513L1.8 10.8031H0.6L0.888 3.95713L0 3.60313L6 1.20312L12 3.60313L6 6.00313ZM6 3.00313C5.67 3.00313 5.4 3.13513 5.4 3.30313C5.4 3.47113 5.67 3.60313 6 3.60313C6.33 3.60313 6.6 3.47113 6.6 3.30313C6.6 3.13513 6.33 3.00313 6 3.00313ZM6 6.60313L9.342 5.26513C9.768 5.82913 10.062 6.50712 10.158 7.24513C9.978 7.22113 9.792 7.20312 9.6 7.20312C8.07 7.20312 6.732 8.02513 6 9.24913C5.268 8.02513 3.93 7.20312 2.4 7.20312C2.208 7.20312 2.022 7.22113 1.842 7.24513C1.938 6.50712 2.232 5.82913 2.658 5.26513L6 6.60313Z" fill="#595959"/>
</svg>