<svg xmlns="http://www.w3.org/2000/svg" width="12" height="12" viewBox="0 0 12 12" fill="none">
  <path d="M10.1992 1.20312H1.79922C1.46784 1.20312 1.19922 1.40459 1.19922 1.65313V1.95312C1.19922 2.20166 1.46784 2.40313 1.79922 2.40313C1.79922 4.10872 3.07462 5.54814 4.82027 6.00313C3.07462 6.45811 1.79922 7.89753 1.79922 9.60313C1.46784 9.60313 1.19922 9.80459 1.19922 10.0531V10.3531C1.19922 10.6017 1.46784 10.8031 1.79922 10.8031H10.1992C10.5306 10.8031 10.7992 10.6017 10.7992 10.3531V10.0531C10.7992 9.80459 10.5306 9.60313 10.1992 9.60313C10.1992 7.89753 8.92382 6.45811 7.17817 6.00313C8.92382 5.54814 10.1992 4.10872 10.1992 2.40313C10.5306 2.40313 10.7992 2.20166 10.7992 1.95312V1.65313C10.7992 1.40459 10.5306 1.20312 10.1992 1.20312ZM8.59922 9.60313H3.39922C3.39922 8.15079 4.55432 6.90313 5.99922 6.90313C7.44387 6.90313 8.59922 8.15032 8.59922 9.60313Z" fill="#595959"/>
</svg>