<svg xmlns="http://www.w3.org/2000/svg" width="12" height="12" viewBox="0 0 12 12" fill="none">
<path fill-rule="evenodd" clip-rule="evenodd" d="M3.59922 1.20312C3.26785 1.20312 2.99922 1.47176 2.99922 1.80313V2.40313H2.39922C1.73648 2.40313 1.19922 2.94038 1.19922 3.60313V9.60313C1.19922 10.2659 1.73648 10.8031 2.39922 10.8031H9.59922C10.262 10.8031 10.7992 10.2659 10.7992 9.60313V3.60313C10.7992 2.94038 10.262 2.40313 9.59922 2.40313H8.99922V1.80313C8.99922 1.47176 8.7306 1.20312 8.39922 1.20312C8.06784 1.20312 7.79922 1.47176 7.79922 1.80313V2.40313H4.19922V1.80313C4.19922 1.47176 3.93059 1.20312 3.59922 1.20312ZM3.59922 4.20312C3.26785 4.20312 2.99922 4.47176 2.99922 4.80313C2.99922 5.13449 3.26785 5.40313 3.59922 5.40313H8.39922C8.7306 5.40313 8.99922 5.13449 8.99922 4.80313C8.99922 4.47176 8.7306 4.20312 8.39922 4.20312H3.59922Z" fill="#595959"/>
</svg>