<svg xmlns="http://www.w3.org/2000/svg" version="1.1" xmlns:xlink="http://www.w3.org/1999/xlink" width="512" height="512" x="0" y="0" viewBox="0 0 48 48" style="enable-background:new 0 0 512 512" xml:space="preserve" class=""><g><path d="M45.5 47.5h-43c-1.1 0-2-.9-2-2V15.3c0-1.1.9-2 2-2h43.1c1.1 0 2 .9 2 2v30.2c-.1 1.1-1 2-2.1 2zM4.4 43.6h39.2V17.3H4.4z" fill="#000000" opacity="1" class=""></path><path d="M36.9 33.3H11.1c-.4 0-.8-.1-1.2-.4l-8.7-6.6c-.5-.4-.8-.9-.8-1.6V17c0-1.1.9-2 2-2s2 .9 2 2v6.7l7.4 5.6h24.4l7.4-6.1V17c0-1.1.9-2 2-2s2 .9 2 2v7.2c0 .6-.3 1.1-.7 1.5l-8.7 7.1c-.4.3-.9.5-1.3.5z" fill="#000000" opacity="1" class=""></path><path d="M24 36.2c-1.1 0-2-.9-2-2v-6.6c0-1.1.9-2 2-2s2 .9 2 2v6.6c0 1.1-.9 2-2 2zM36 16.4c-1.1 0-2-.9-2-2 0-5.5-4.5-10-10-10s-10 4.5-10 10c0 1.1-.9 2-2 2s-2-.9-2-2C10 6.7 16.3.5 23.9.5s13.9 6.3 13.9 13.9c.1 1.1-.7 2-1.8 2z" fill="#000000" opacity="1" class=""></path></g></svg>