<svg xmlns="http://www.w3.org/2000/svg" version="1.1" xmlns:xlink="http://www.w3.org/1999/xlink" width="512" height="512" x="0" y="0" viewBox="0 0 66 66" style="enable-background:new 0 0 512 512" xml:space="preserve" class=""><g><path d="M34 46.1c-.7 2.5-.8 5.2 0 8h6.4c-.3-2.7-.3-5.3 0-8zM34.8 56c1.7 3.5 4.8 6.2 8.5 7.4-1.2-1.8-2.1-4.3-2.6-7.4zM34.8 44h5.9c.5-3.1 1.4-5.6 2.6-7.4-3.8 1.2-6.9 3.9-8.5 7.4zM42.7 56c.9 4.9 2.8 8 4.6 8s3.7-3.1 4.6-8zM52 44c-.9-4.9-2.8-8-4.6-8s-3.7 3.1-4.6 8zM42.4 54h9.9c.3-2.6.3-5.3 0-8h-9.9c-.3 2.6-.3 5.5 0 8zM51.4 63.4c3.8-1.1 6.9-3.8 8.5-7.4H54c-.5 3.1-1.4 5.6-2.6 7.4zM59.9 44c-1.7-3.5-4.8-6.2-8.5-7.4 1.2 1.7 2.1 4.3 2.6 7.4zM60.7 46.1h-6.4c.3 2.8.3 5.3 0 8h6.4c.7-2.6.8-5.4 0-8zM7.1 11.1l8.8 2.6.1 2.5c2.3-1.4 6.2-1.6 8-1.6 1.7 0 5.8.2 8.1 1.6l.1-2.5 3.8-1.2V15l-1.3 1.7c-.1.2-.2.4-.2.6v3.9c0 .6.4 1 1 1h3.1c.6 0 1-.4 1-1v-3.9c0-.2-.1-.4-.2-.6L38 15v-3l2.7-.8c.4-.1.7-.5.7-.9s-.2-.8-.6-1L24.3 2.1c-.3-.1-.6-.1-.8 0L7 9.2c-.4.2-.6.6-.6 1s.3.8.7.9z" fill="#5d5fef" opacity="1" class=""></path><path d="M31.1 18.1c-2.9-2-12.5-1.8-14.5.2l-.2.2c0 .1-.1.1-.1.2-2.3 6.7 2.4 14 7.6 14 5.3 0 10-7.3 7.6-14.1 0-.2-.1-.4-.4-.5z" fill="#5d5fef" opacity="1" class=""></path><path d="M40.7 35.6c-1.2-1.4-6.7-2.7-8.6-2.9-.3 0-.7.1-.9.3-.2.3-.3.6-.2.9.4 1.3.6 2.6.7 3.9.2 3.6-1.6 6.7-4.6 10l-.5-6.9h.4c.6 0 1-.4 1-1v-3.3c0-.6-.4-1-1-1h-5.9c-.6 0-1 .4-1 1v3.3c0 .6.4 1 1 1h.6l-.5 7c-4.3-5.1-5.6-9.6-4.2-14 .1-.3 0-.7-.2-.9-.2-.3-.5-.4-.9-.4-3.3.3-3.8.9-6.7 1.8-2.7.8-3 3-3.3 4.8L4.7 57.9c0 .3.1.5.3.8.2.2.4.3.7.3h28.4c-5-7.5-3.5-18.8 6.6-23.4z" fill="#5d5fef" opacity="1" class=""></path></g></svg>