<svg xmlns="http://www.w3.org/2000/svg" width="16" height="16" viewBox="0 0 16 16" fill="none">
  <path d="M7.99984 1.33203C5.0665 1.33203 2.6665 3.73203 2.6665 6.66536C2.6665 10.2654 7.33317 14.332 7.53317 14.532C7.6665 14.5987 7.8665 14.6654 7.99984 14.6654C8.13317 14.6654 8.33317 14.5987 8.4665 14.532C8.6665 14.332 13.3332 10.2654 13.3332 6.66536C13.3332 3.73203 10.9332 1.33203 7.99984 1.33203ZM7.99984 13.132C6.59984 11.7987 3.99984 8.93203 3.99984 6.66536C3.99984 4.46536 5.79984 2.66536 7.99984 2.66536C10.1998 2.66536 11.9998 4.46536 11.9998 6.66536C11.9998 8.86536 9.39984 11.7987 7.99984 13.132ZM7.99984 3.9987C6.53317 3.9987 5.33317 5.1987 5.33317 6.66536C5.33317 8.13203 6.53317 9.33203 7.99984 9.33203C9.4665 9.33203 10.6665 8.13203 10.6665 6.66536C10.6665 5.1987 9.4665 3.9987 7.99984 3.9987ZM7.99984 7.9987C7.2665 7.9987 6.6665 7.3987 6.6665 6.66536C6.6665 5.93203 7.2665 5.33203 7.99984 5.33203C8.73317 5.33203 9.33317 5.93203 9.33317 6.66536C9.33317 7.3987 8.73317 7.9987 7.99984 7.9987Z" fill="#595959"/>
</svg>