<svg xmlns="http://www.w3.org/2000/svg" width="32" height="32" viewBox="0 0 32 32" fill="none">
  <rect width="32" height="32" rx="4" fill="#FDECF5"/>
  <path d="M16 8C13.2386 8 11 10.2386 11 13V15C9.89543 15 9 15.8954 9 17V22C9 23.1046 9.89543 24 11 24H21C22.1046 24 23 23.1046 23 22V17C23 15.8954 22.1046 15 21 15H13V13C13 11.3432 14.3432 10 16 10C17.3965 10 18.5725 10.9551 18.9055 12.2493C19.0432 12.7841 19.5884 13.1061 20.1232 12.9684C20.6581 12.8308 20.9801 12.2856 20.8424 11.7507C20.2874 9.59442 18.3312 8 16 8Z" fill="#888888"/>
</svg>