<svg xmlns="http://www.w3.org/2000/svg" width="16" height="16" viewBox="0 0 16 16" fill="none">
  <g clip-path="url(#clip0_5196_722)">
    <path d="M12.667 9.33463V4.0013C12.667 3.26797 12.067 2.66797 11.3337 2.66797H2.00033C1.26699 2.66797 0.666992 3.26797 0.666992 4.0013V9.33463C0.666992 10.068 1.26699 10.668 2.00033 10.668H11.3337C12.067 10.668 12.667 10.068 12.667 9.33463ZM11.3337 9.33463H2.00033V4.0013H11.3337V9.33463ZM6.66699 4.66797C5.56033 4.66797 4.66699 5.5613 4.66699 6.66797C4.66699 7.77464 5.56033 8.66797 6.66699 8.66797C7.77366 8.66797 8.66699 7.77464 8.66699 6.66797C8.66699 5.5613 7.77366 4.66797 6.66699 4.66797ZM15.3337 4.66797V12.0013C15.3337 12.7346 14.7337 13.3346 14.0003 13.3346H2.66699C2.66699 12.668 2.66699 12.7346 2.66699 12.0013H14.0003V4.66797C14.7337 4.66797 14.667 4.66797 15.3337 4.66797Z" fill="#595959"/>
  </g>
  <defs>
    <clipPath id="clip0_5196_722">
      <rect width="16" height="16" fill="white"/>
    </clipPath>
  </defs>
</svg>