<svg xmlns="http://www.w3.org/2000/svg" width="16" height="16" viewBox="0 0 16 16" fill="none">
  <path fill-rule="evenodd" clip-rule="evenodd" d="M3.33366 4.9987C2.78137 4.9987 2.33366 5.44641 2.33366 5.9987V11.9987C2.33366 12.551 2.78137 12.9987 3.33366 12.9987H12.667C13.2193 12.9987 13.667 12.551 13.667 11.9987V5.9987C13.667 5.44641 13.2193 4.9987 12.667 4.9987H3.33366ZM1.66699 5.9987C1.66699 5.07822 2.41318 4.33203 3.33366 4.33203H12.667C13.5875 4.33203 14.3337 5.07822 14.3337 5.9987V11.9987C14.3337 12.9192 13.5875 13.6654 12.667 13.6654H3.33366C2.41318 13.6654 1.66699 12.9192 1.66699 11.9987V5.9987Z" fill="#595959"/>
  <path fill-rule="evenodd" clip-rule="evenodd" d="M6.66667 2.33464C6.40145 2.33464 6.1471 2.43999 5.95956 2.62753C5.77202 2.81507 5.66667 3.06942 5.66667 3.33464V4.66797C5.66667 4.85206 5.51743 5.0013 5.33333 5.0013C5.14924 5.0013 5 4.85206 5 4.66797V3.33464C5 2.89261 5.1756 2.46868 5.48816 2.15612C5.80072 1.84356 6.22464 1.66797 6.66667 1.66797H9.33333C9.77536 1.66797 10.1993 1.84356 10.5118 2.15612C10.8244 2.46868 11 2.89261 11 3.33464V4.66797C11 4.85206 10.8508 5.0013 10.6667 5.0013C10.4826 5.0013 10.3333 4.85206 10.3333 4.66797V3.33464C10.3333 3.06942 10.228 2.81507 10.0404 2.62753C9.8529 2.43999 9.59855 2.33464 9.33333 2.33464H6.66667Z" fill="#595959"/>
  <path fill-rule="evenodd" clip-rule="evenodd" d="M8.00033 7.66797C8.18442 7.66797 8.33366 7.81721 8.33366 8.0013V8.00797C8.33366 8.19206 8.18442 8.3413 8.00033 8.3413C7.81623 8.3413 7.66699 8.19206 7.66699 8.00797V8.0013C7.66699 7.81721 7.81623 7.66797 8.00033 7.66797Z" fill="#595959"/>
  <path fill-rule="evenodd" clip-rule="evenodd" d="M1.70272 8.51544C1.78556 8.35103 1.986 8.28492 2.1504 8.36776C3.96493 9.28211 5.96852 9.75839 8.0004 9.75839C10.0323 9.75839 12.0359 9.28211 13.8504 8.36776C14.0148 8.28492 14.2152 8.35103 14.2981 8.51544C14.3809 8.67984 14.3148 8.88027 14.1504 8.96311C12.2428 9.92435 10.1365 10.4251 8.0004 10.4251C5.86432 10.4251 3.75798 9.92435 1.8504 8.96311C1.686 8.88027 1.61988 8.67984 1.70272 8.51544Z" fill="#595959"/>
</svg>