<svg xmlns="http://www.w3.org/2000/svg" width="32" height="32" viewBox="0 0 32 32" fill="none">
  <rect width="32" height="32" rx="4" fill="#FDECF5"/>
  <path d="M20.1038 8.66848C20.3158 8.45654 20.5674 8.28843 20.8443 8.17373C21.1212 8.05903 21.418 8 21.7177 8C22.0174 8 22.3142 8.05903 22.5911 8.17373C22.868 8.28843 23.1196 8.45654 23.3315 8.66848C23.5435 8.88041 23.7116 9.13201 23.8263 9.40891C23.941 9.68582 24 9.9826 24 10.2823C24 10.582 23.941 10.8788 23.8263 11.1557C23.7116 11.4326 23.5435 11.6842 23.3315 11.8962L12.4381 22.7896L8 24L9.21038 19.5619L20.1038 8.66848Z" fill="#888888"/>
</svg>