<svg xmlns="http://www.w3.org/2000/svg" width="24" height="24" viewBox="0 0 24 24" fill="none">
  <path fill-rule="evenodd" clip-rule="evenodd" d="M9.5999 4.80039C6.94893 4.80039 4.7999 6.94942 4.7999 9.60039C4.7999 12.2513 6.94893 14.4004 9.5999 14.4004C12.2508 14.4004 14.3999 12.2513 14.3999 9.60039C14.3999 6.94942 12.2508 4.80039 9.5999 4.80039ZM2.3999 9.60039C2.3999 5.62394 5.62345 2.40039 9.5999 2.40039C13.5763 2.40039 16.7999 5.62394 16.7999 9.60039C16.7999 11.1554 16.3069 12.5952 15.4687 13.7722L21.2484 19.5519C21.717 20.0205 21.717 20.7803 21.2484 21.2489C20.7798 21.7175 20.02 21.7175 19.5514 21.2489L13.7717 15.4692C12.5947 16.3074 11.1549 16.8004 9.5999 16.8004C5.62345 16.8004 2.3999 13.5768 2.3999 9.60039Z" fill="#4A5568"/>
</svg>