<svg xmlns="http://www.w3.org/2000/svg" width="24" height="24" viewBox="0 0 24 24" fill="none">
  <g clip-path="url(#clip0_6042_742)">
    <path d="M20.2839 22.385H18.855L18.8548 19.8349C18.8548 17.2782 17.4521 14.9278 14.9052 13.2166C14.583 12.9999 14.3827 12.5338 14.3827 12.0001C14.3827 11.4663 14.583 11.0002 14.9051 10.7837C17.4521 9.07232 18.8548 6.72194 18.855 4.16517V1.61495H20.2839C20.7298 1.61495 21.0913 1.25333 21.0913 0.807434C21.0913 0.361535 20.7297 0 20.2839 0H3.71661C3.27072 0 2.90918 0.361616 2.90918 0.807434C2.90918 1.25341 3.2708 1.61495 3.71661 1.61495H5.14555V4.16509C5.14555 6.72202 6.54813 9.0724 9.09504 10.7835C9.41739 11.0002 9.61763 11.4662 9.61763 12C9.61763 12.5338 9.41739 12.9998 9.09513 13.2164C6.54813 14.9277 5.14555 17.2781 5.14555 19.8348V22.385H3.71661C3.27072 22.385 2.90918 22.7466 2.90918 23.1925C2.90918 23.6385 3.2708 23.9999 3.71661 23.9999H20.2839C20.7298 23.9999 21.0913 23.6384 21.0913 23.1925C21.0913 22.7466 20.7297 22.385 20.2839 22.385ZM6.76042 19.8348C6.76042 17.1338 8.78749 15.3686 9.99581 14.5569C10.7702 14.0364 11.2325 13.0806 11.2325 12C11.2325 10.9194 10.7702 9.96364 9.99573 9.44307C8.78749 8.63127 6.76042 6.8661 6.76042 4.16509V1.61495H17.2401L17.2399 4.16509C17.2399 6.86602 15.2128 8.63127 14.0043 9.44323C13.2301 9.96372 12.7679 10.9195 12.7679 12C12.7679 13.0805 13.2301 14.0362 14.0045 14.5569C15.2128 15.3688 17.2399 17.1341 17.2401 19.8348V22.385H16.9725C16.3086 19.8897 12.9209 17.1776 12.4976 16.8466C12.2053 16.6181 11.795 16.6183 11.5029 16.8466C11.0795 17.1775 7.69173 19.8897 7.02789 22.385H6.76033V19.8348H6.76042ZM15.2757 22.385H8.72478C9.25682 21.1413 10.7759 19.567 12.0003 18.5257C13.2247 19.567 14.7437 21.1413 15.2757 22.385Z" fill="#5D5FEF"/>
    <path d="M11.9988 15.4352C12.2112 15.4352 12.4195 15.3488 12.5697 15.1986C12.7206 15.0484 12.8063 14.84 12.8063 14.6278C12.8063 14.4155 12.7206 14.2071 12.5697 14.0568C12.4195 13.9068 12.2112 13.8203 11.9988 13.8203C11.7865 13.8203 11.5782 13.9067 11.428 14.0568C11.2778 14.2071 11.1914 14.4155 11.1914 14.6278C11.1914 14.84 11.2777 15.0484 11.428 15.1986C11.5782 15.3487 11.7865 15.4352 11.9988 15.4352Z" fill="#5D5FEF"/>
    <path d="M11.9998 11.1537C12.4458 11.1537 12.8072 10.7921 12.8072 10.3462V8.91884C12.8072 8.47294 12.4457 8.11133 11.9998 8.11133C11.5539 8.11133 11.1924 8.47294 11.1924 8.91884V10.3462C11.1924 10.7921 11.5538 11.1537 11.9998 11.1537Z" fill="#5D5FEF"/>
  </g>
  <defs>
    <clipPath id="clip0_6042_742">
      <rect width="24" height="24" fill="white"/>
    </clipPath>
  </defs>
</svg>