<svg xmlns="http://www.w3.org/2000/svg" width="51" height="51" viewBox="0 0 51 51" fill="none">
  <g clip-path="url(#clip0_5820_237)">
    <path d="M16.9873 31.7089C9.47427 23.8781 9.46829 11.1859 16.9704 3.34766C15.0778 4.32632 13.3605 5.61228 11.8888 7.15273L11.8873 7.15373C4.36829 14.9905 4.36829 27.6967 11.8873 35.5339L25.5039 49.7248L29.8887 45.1547L16.9873 31.7089Z" fill="#D4E1F4"/>
    <path d="M25.5043 30.7313C19.1667 30.7313 14.0293 25.5934 14.0293 19.2563C14.0293 12.9186 19.1667 7.78125 25.5043 7.78125C31.8414 7.78125 36.9793 12.9186 36.9793 19.2563C36.9793 25.5934 31.8414 30.7313 25.5043 30.7313ZM25.5043 10.3313C20.5751 10.3313 16.5793 14.3271 16.5793 19.2563C16.5793 24.1854 20.5751 28.1813 25.5043 28.1813C30.4335 28.1813 34.4293 24.1854 34.4293 19.2563C34.4293 14.3271 30.4335 10.3313 25.5043 10.3313Z" fill="#EF5DA8"/>
    <path d="M25.5036 51C25.156 51 24.8238 50.8586 24.5833 50.6075L10.9671 36.4167C7.10131 32.3875 4.97266 27.035 4.97266 21.3438C4.97266 15.6531 7.10181 10.3001 10.9671 6.27141L10.9741 6.26394C14.8529 2.22428 20.0127 0 25.5036 0C30.9946 0 36.1544 2.22478 40.0332 6.26443L40.0396 6.27141C43.9055 10.3001 46.0341 15.6531 46.0341 21.3438C46.0341 27.035 43.905 32.3875 40.0396 36.4167L26.4235 50.6075C26.183 50.8581 25.8508 51 25.5036 51ZM12.8015 8.04246C5.76654 15.3807 5.76854 27.3154 12.8074 34.6516L25.5036 47.8832L38.1998 34.6511C45.2382 27.3154 45.2397 15.3802 38.2048 8.04196L38.1984 8.03549C34.8047 4.49786 30.2958 2.55 25.5036 2.55C20.7109 2.55 16.2026 4.49786 12.8084 8.03549L12.8015 8.04246Z" fill="#5D5FEF"/>
  </g>
  <defs>
    <clipPath id="clip0_5820_237">
      <rect width="51" height="51" fill="white"/>
    </clipPath>
  </defs>
</svg>