<svg xmlns="http://www.w3.org/2000/svg" width="54" height="54" viewBox="0 0 54 54" fill="none">
  <g clip-path="url(#clip0_5820_229)">
    <path d="M11.5673 15.0571H52.6958C52.6968 12.2174 50.3944 9.91501 47.5548 9.91602H6.42623C3.58659 9.91501 1.28415 12.2174 1.28516 15.0571V39.0529C1.28415 41.8926 3.58659 44.1945 6.42623 44.194V20.1982C6.42522 17.3585 8.72766 15.0561 11.5673 15.0571Z" fill="#D4E1F4"/>
    <path d="M52.0666 13.9252L26.9908 27.909L1.91506 13.9252C1.29402 13.5808 0.51181 13.8052 0.167398 14.4263C-0.177013 15.0473 0.0474065 15.83 0.668452 16.1744L26.3738 30.5052C26.5671 30.6111 26.7835 30.6683 27.0039 30.6723C27.2248 30.6749 27.4427 30.6171 27.6335 30.5052L53.3388 16.1744C53.9583 15.829 54.1828 15.0478 53.8399 14.4263C53.4819 13.8067 52.6957 13.5848 52.0666 13.9252Z" fill="#EF5DA8"/>
    <path d="M47.5549 8.63086H6.42634C2.87779 8.63186 0.00150618 11.5087 0 15.0572V39.053C0.00150618 42.6016 2.87779 45.4779 6.42634 45.4794H47.5549C51.1034 45.4779 53.9797 42.6016 53.9812 39.053V15.0572C53.9797 11.5087 51.1034 8.63186 47.5549 8.63086ZM51.4107 39.04C51.4047 41.1672 49.6816 42.8898 47.5549 42.8958H6.42634C4.29962 42.8898 2.57656 41.1672 2.57053 39.04V15.0572C2.57656 12.93 4.29962 11.2074 6.42634 11.2014H47.5549C49.6816 11.2074 51.4047 12.93 51.4107 15.0572V39.04Z" fill="#5D5FEF"/>
  </g>
  <defs>
    <clipPath id="clip0_5820_229">
      <rect width="54" height="54" fill="white"/>
    </clipPath>
  </defs>
</svg>