<svg xmlns="http://www.w3.org/2000/svg" width="24" height="24" viewBox="0 0 24 24" fill="none">
  <g clip-path="url(#clip0_6042_784)">
    <path d="M23.6124 5.74662L12.3155 0.0747422C12.117 -0.0249141 11.883 -0.0249141 11.6845 0.0747422L0.387657 5.74662C0.149673 5.8661 -0.000420988 6.10985 8.87016e-07 6.37615C0.000422762 6.64245 0.15136 6.88568 0.38972 7.00441L1.40625 7.51057V18.449C0.58786 18.7393 8.87016e-07 19.5208 8.87016e-07 20.4375V23.2969C8.87016e-07 23.6852 0.314766 24 0.703126 24H3.51563C3.90394 24 4.21875 23.6852 4.21875 23.2969V20.4375C4.21875 19.5208 3.63089 18.7393 2.8125 18.449V8.21074L4.26563 8.93431V12C4.26563 13.3836 5.11823 14.6572 6.66642 15.5861C8.10211 16.4474 9.99628 16.9219 12 16.9219C16.1849 16.9219 19.7344 14.8324 19.7344 12V8.93435L23.6103 7.00446C24.1276 6.74684 24.1297 6.00635 23.6124 5.74662ZM2.8125 22.5938H1.40625V20.4375C1.40625 20.0513 1.71933 19.737 2.10506 19.7346C2.10652 19.7346 2.10792 19.7349 2.10938 19.7349C2.11083 19.7349 2.11224 19.7347 2.11369 19.7346C2.49942 19.737 2.8125 20.0513 2.8125 20.4375V22.5938ZM18.3281 12C18.3281 13.9057 15.4302 15.5156 12 15.5156C8.56978 15.5156 5.67188 13.9057 5.67188 12V9.63452L11.6866 12.6294C11.7853 12.6785 11.8927 12.7031 12 12.7031C12.1073 12.7031 12.2147 12.6786 12.3134 12.6294L18.3281 9.63452V12ZM12 11.2146C11.4765 10.9539 2.68683 6.57734 2.27536 6.37245L12 1.48995L21.7246 6.37245C21.2941 6.58681 12.5053 10.963 12 11.2146Z" fill="#5D5FEF"/>
  </g>
  <defs>
    <clipPath id="clip0_6042_784">
      <rect width="24" height="24" fill="white"/>
    </clipPath>
  </defs>
</svg>