<svg xmlns="http://www.w3.org/2000/svg" width="24" height="24" viewBox="0 0 24 24" fill="none">
  <path d="M23.9663 13.3587C23.9663 13.3586 23.9663 13.3585 23.9662 13.3584L19.4349 1.98068C19.3387 1.73893 19.0647 1.62091 18.823 1.71708C18.8228 1.71714 18.8226 1.7172 18.8224 1.71732L0.439561 9.03721C0.364593 9.0696 0.299577 9.1213 0.25111 9.18703C0.0982298 9.26647 0.00164894 9.42371 0 9.59596V21.8452C0 22.1054 0.210947 22.3164 0.471126 22.3164H20.2584C20.5186 22.3164 20.7296 22.1054 20.7296 21.8452V15.1553L23.7033 13.9708C23.945 13.8744 24.0627 13.6004 23.9663 13.3587ZM19.7873 21.3741H0.942253V10.0671H19.7873V21.3741ZM7.86074 9.12719L15.7493 5.98384C16.4533 6.72386 17.4288 7.14446 18.4502 7.14846L19.237 9.12719H7.86074ZM20.7296 14.1433V9.59596C20.7296 9.33578 20.5186 9.12484 20.2584 9.12484H20.2509L19.2526 6.6175C19.2415 6.5966 19.2286 6.57669 19.2139 6.55814C19.1634 6.33123 18.9533 6.17641 18.7216 6.19537C17.7712 6.282 16.8415 5.88166 16.2515 5.13157C16.1047 4.95036 15.8466 4.90531 15.647 5.02604C15.6247 5.02869 15.6025 5.03281 15.5806 5.03829L5.94985 8.87326C5.83331 8.91895 5.74009 9.00959 5.69121 9.12484H2.76645L18.7339 2.76699L22.917 13.2707L20.7296 14.1433Z" fill="#5D5FEF"/>
  <path d="M2.22115 18.194C3.13584 18.4643 3.8516 19.1792 4.12309 20.0935C4.18263 20.2931 4.36619 20.4299 4.57443 20.4299C4.59887 20.4284 4.62313 20.4247 4.64698 20.4191C4.66812 20.4251 4.68973 20.4295 4.71152 20.4323H16.0186C16.038 20.4297 16.0572 20.4258 16.076 20.4205C16.3114 20.4777 16.5486 20.3334 16.6059 20.098C16.6061 20.0971 16.6063 20.0963 16.6065 20.0954C16.8773 19.1801 17.5932 18.4643 18.5085 18.1935C18.7304 18.1256 18.8683 17.9045 18.8317 17.6752C18.838 17.6524 18.8425 17.6291 18.8453 17.6055V13.8365C18.8425 13.8129 18.8378 13.7896 18.8312 13.7668C18.8681 13.5375 18.7301 13.3162 18.508 13.2486C17.5927 12.9778 16.877 12.2617 16.607 11.3461C16.5388 11.1227 16.3154 10.9844 16.085 11.023C16.0632 11.0169 16.041 11.0125 16.0186 11.0098H4.71152C4.68779 11.0126 4.66429 11.0173 4.64133 11.0239C4.41218 10.9874 4.19111 11.1253 4.12309 11.3471C3.85213 12.2622 3.13631 12.9778 2.22115 13.2486C1.99919 13.3164 1.86127 13.5376 1.89796 13.7668C1.89183 13.7897 1.88742 13.813 1.88477 13.8365V17.6055C1.88747 17.6277 1.89189 17.6496 1.89796 17.671C1.85932 17.9017 1.99754 18.1254 2.22115 18.194ZM2.82702 14.0278C3.77304 13.6478 4.52284 12.898 4.9028 11.952H15.8268C16.2069 12.898 16.9569 13.6478 17.9031 14.0278V17.4142C16.9573 17.7946 16.2077 18.5443 15.8273 19.49H4.9028C4.52243 18.5443 3.77275 17.7946 2.82702 17.4142V14.0278Z" fill="#5D5FEF"/>
  <path d="M10.3648 18.548C11.926 18.548 13.1916 17.2825 13.1916 15.7213C13.1916 14.1601 11.926 12.8945 10.3648 12.8945C8.80365 12.8945 7.53809 14.1601 7.53809 15.7213C7.53962 17.2818 8.8043 18.5465 10.3648 18.548ZM10.3648 13.8368C11.4056 13.8368 12.2493 14.6805 12.2493 15.7213C12.2493 16.7621 11.4056 17.6058 10.3648 17.6058C9.32407 17.6058 8.48034 16.7621 8.48034 15.7213C8.48034 14.6805 9.32407 13.8368 10.3648 13.8368Z" fill="#5D5FEF"/>
  <path d="M5.18228 16.4271C5.57254 16.4271 5.88896 16.1106 5.88896 15.7204C5.88896 15.3301 5.57254 15.0137 5.18228 15.0137C4.79201 15.0137 4.47559 15.3301 4.47559 15.7204C4.47559 16.1107 4.79201 16.4271 5.18228 16.4271ZM5.18228 15.4848C5.31236 15.4848 5.41784 15.5903 5.41784 15.7204C5.41784 15.8505 5.31236 15.9559 5.18228 15.9559C5.05219 15.9559 4.94671 15.8505 4.94671 15.7204C4.94671 15.5903 5.05219 15.4848 5.18228 15.4848Z" fill="#5D5FEF"/>
  <path d="M15.5475 16.4271C15.9378 16.4271 16.2542 16.1106 16.2542 15.7204C16.2542 15.3301 15.9378 15.0137 15.5475 15.0137C15.1572 15.0137 14.8408 15.3301 14.8408 15.7204C14.8408 16.1107 15.1572 16.4271 15.5475 16.4271ZM15.5475 15.4848C15.6776 15.4848 15.7831 15.5903 15.7831 15.7204C15.7831 15.8505 15.6776 15.9559 15.5475 15.9559C15.4174 15.9559 15.3119 15.8505 15.3119 15.7204C15.3119 15.5903 15.4174 15.4848 15.5475 15.4848Z" fill="#5D5FEF"/>
</svg>