<svg width="16" height="16" viewBox="0 0 16 16" fill="none" xmlns="http://www.w3.org/2000/svg">
<g id="Frame">
<path id="Vector" d="M13.777 3.50438C13.909 3.62184 13.9889 3.78689 13.9993 3.96327C14.0097 4.13965 13.9496 4.31293 13.8323 4.44505L6.72164 12.4451C6.65909 12.5154 6.58234 12.5718 6.49645 12.6104C6.41055 12.6489 6.31746 12.6689 6.2233 12.6689C6.12914 12.6689 6.03605 12.6489 5.95016 12.6104C5.86426 12.5718 5.78752 12.5154 5.72497 12.4451L2.16964 8.44505C2.05905 8.31202 2.0045 8.14122 2.01752 7.96872C2.03053 7.79622 2.11009 7.63553 2.23938 7.5206C2.36868 7.40567 2.53759 7.3455 2.71042 7.3528C2.88326 7.3601 3.04649 7.4343 3.16564 7.55972L6.22297 10.9991L12.8363 3.55905C12.9539 3.42715 13.1189 3.34731 13.2953 3.33706C13.4717 3.32681 13.6449 3.38699 13.777 3.50438Z" fill="#389437"/>
</g>
</svg>
