<svg xmlns="http://www.w3.org/2000/svg" width="56" height="53" viewBox="0 0 56 53" fill="none">
  <g filter="url(#filter0_d_2228_5635)">
    <path d="M26.2679 13C27.0377 11.6667 28.9623 11.6667 29.7321 13L34.9282 22C35.698 23.3333 34.7358 25 33.1962 25H22.8038C21.2642 25 20.302 23.3333 21.0718 22L26.2679 13Z" fill="white"/>
    <path d="M26.701 13.25C27.2783 12.25 28.7217 12.25 29.299 13.25L34.4952 22.25C35.0725 23.25 34.3509 24.5 33.1962 24.5H22.8038C21.6491 24.5 20.9275 23.25 21.5048 22.25L26.701 13.25Z" stroke="url(#paint0_radial_2228_5635)"/>
  </g>
  <path d="M26.2679 15C27.0377 13.6667 28.9623 13.6667 29.7321 15L34.9282 24C35.698 25.3333 34.7358 27 33.1962 27H22.8038C21.2642 27 20.302 25.3333 21.0718 24L26.2679 15Z" fill="white"/>
  <defs>
    <filter id="filter0_d_2228_5635" x="0.800781" y="0" width="54.3984" height="53" filterUnits="userSpaceOnUse" color-interpolation-filters="sRGB">
      <feFlood flood-opacity="0" result="BackgroundImageFix"/>
      <feColorMatrix in="SourceAlpha" type="matrix" values="0 0 0 0 0 0 0 0 0 0 0 0 0 0 0 0 0 0 127 0" result="hardAlpha"/>
      <feOffset dy="8"/>
      <feGaussianBlur stdDeviation="10"/>
      <feComposite in2="hardAlpha" operator="out"/>
      <feColorMatrix type="matrix" values="0 0 0 0 0 0 0 0 0 0 0 0 0 0 0 0 0 0 0.08 0"/>
      <feBlend mode="normal" in2="BackgroundImageFix" result="effect1_dropShadow_2228_5635"/>
      <feBlend mode="normal" in="SourceGraphic" in2="effect1_dropShadow_2228_5635" result="shape"/>
    </filter>
    <radialGradient id="paint0_radial_2228_5635" cx="0" cy="0" r="1" gradientUnits="userSpaceOnUse" gradientTransform="translate(38.75 8.83721) rotate(134.499) scale(31.6264 137.087)">
      <stop stop-color="#F178B6"/>
      <stop offset="0.419268" stop-color="#5D5FEF"/>
      <stop offset="1" stop-color="#F178B6"/>
    </radialGradient>
  </defs>
</svg>