<svg xmlns="http://www.w3.org/2000/svg" width="48" height="48" viewBox="0 0 48 48" fill="none">
<path d="M24 18C20.6863 18 18 20.6863 18 24C18 27.3137 20.6863 30 24 30C27.3137 30 30 27.3137 30 24C30 20.6863 27.3137 18 24 18Z" fill="white"/>
<path fill-rule="evenodd" clip-rule="evenodd" d="M16.4 5C10.104 5 5 10.104 5 16.4V31.6C5 37.8961 10.104 43 16.4 43H31.6C37.8961 43 43 37.8961 43 31.6V16.4C43 10.104 37.8961 5 31.6 5H16.4ZM15.1333 24C15.1333 19.1031 19.1031 15.1333 24 15.1333C28.8969 15.1333 32.8667 19.1031 32.8667 24C32.8667 28.8969 28.8969 32.8667 24 32.8667C19.1031 32.8667 15.1333 28.8969 15.1333 24ZM32.8667 15.1333H35.4V12.6H32.8667V15.1333Z" fill="white"/>
</svg>