<svg width="24" height="24" viewBox="0 0 24 24" fill="none" xmlns="http://www.w3.org/2000/svg">
<g id="Frame">
<path id="Vector" fill-rule="evenodd" clip-rule="evenodd" d="M9.59844 4.79844C6.94747 4.79844 4.79844 6.94747 4.79844 9.59844C4.79844 12.2494 6.94747 14.3984 9.59844 14.3984C12.2494 14.3984 14.3984 12.2494 14.3984 9.59844C14.3984 6.94747 12.2494 4.79844 9.59844 4.79844ZM2.39844 9.59844C2.39844 5.62199 5.62199 2.39844 9.59844 2.39844C13.5749 2.39844 16.7984 5.62199 16.7984 9.59844C16.7984 11.1534 16.3055 12.5933 15.4673 13.7702L21.247 19.5499C21.7156 20.0185 21.7156 20.7784 21.247 21.247C20.7784 21.7156 20.0185 21.7156 19.5499 21.247L13.7702 15.4673C12.5933 16.3055 11.1534 16.7984 9.59844 16.7984C5.62199 16.7984 2.39844 13.5749 2.39844 9.59844Z" fill="#4A5568"/>
</g>
</svg>
