<svg xmlns="http://www.w3.org/2000/svg" width="48" height="48" viewBox="0 0 48 48" fill="none">
  <path d="M41.6409 3H6.58875C4.67344 3 3 4.37812 3 6.27094V41.4009C3 43.3041 4.67344 45 6.58875 45H41.6306C43.5563 45 45 43.2928 45 41.4009V6.27094C45.0112 4.37812 43.5563 3 41.6409 3ZM16.0191 38.0091H10.0022V19.3013H16.0191V38.0091ZM13.2188 16.4569H13.1756C11.25 16.4569 10.0031 15.0234 10.0031 13.2291C10.0031 11.4019 11.2828 10.0022 13.2516 10.0022C15.2203 10.0022 16.425 11.3916 16.4681 13.2291C16.4672 15.0234 15.2203 16.4569 13.2188 16.4569ZM38.0091 38.0091H31.9922V27.78C31.9922 25.3294 31.1166 23.655 28.9397 23.655C27.2766 23.655 26.2922 24.78 25.8544 25.8759C25.6903 26.2697 25.6462 26.8059 25.6462 27.3534V38.0091H19.6294V19.3013H25.6462V21.9047C26.5219 20.6578 27.8897 18.8634 31.0725 18.8634C35.0222 18.8634 38.01 21.4669 38.01 27.0797L38.0091 38.0091Z" fill="white"/>
</svg>