<svg xmlns="http://www.w3.org/2000/svg" width="16" height="16" viewBox="0 0 16 16" fill="none">
  <path d="M9.33333 3.33333C9.15652 3.33333 8.98695 3.2631 8.86193 3.13807C8.73691 3.01305 8.66667 2.84348 8.66667 2.66667C8.66667 2.48986 8.73691 2.32029 8.86193 2.19526C8.98695 2.07024 9.15652 2 9.33333 2H13.3333C13.5101 2 13.6797 2.07024 13.8047 2.19526C13.9298 2.32029 14 2.48986 14 2.66667V6.66667C14 6.84348 13.9298 7.01305 13.8047 7.13807C13.6797 7.2631 13.5101 7.33333 13.3333 7.33333C13.1565 7.33333 12.987 7.2631 12.8619 7.13807C12.7369 7.01305 12.6667 6.84348 12.6667 6.66667V4.276L6.47133 10.4713C6.3456 10.5928 6.1772 10.66 6.0024 10.6584C5.8276 10.6569 5.66039 10.5868 5.53679 10.4632C5.41318 10.3396 5.34307 10.1724 5.34155 9.9976C5.34003 9.8228 5.40723 9.6544 5.52867 9.52867L11.724 3.33333H9.33333ZM2 4.66667C2 4.31304 2.14048 3.97391 2.39052 3.72386C2.64057 3.47381 2.97971 3.33333 3.33333 3.33333H6.66667C6.84348 3.33333 7.01305 3.40357 7.13807 3.5286C7.2631 3.65362 7.33333 3.82319 7.33333 4C7.33333 4.17681 7.2631 4.34638 7.13807 4.4714C7.01305 4.59643 6.84348 4.66667 6.66667 4.66667H3.33333V12.6667H11.3333V9.33333C11.3333 9.15652 11.4036 8.98695 11.5286 8.86193C11.6536 8.73691 11.8232 8.66667 12 8.66667C12.1768 8.66667 12.3464 8.73691 12.4714 8.86193C12.5964 8.98695 12.6667 9.15652 12.6667 9.33333V12.6667C12.6667 13.0203 12.5262 13.3594 12.2761 13.6095C12.0261 13.8595 11.687 14 11.3333 14H3.33333C2.97971 14 2.64057 13.8595 2.39052 13.6095C2.14048 13.3594 2 13.0203 2 12.6667V4.66667Z" fill="#171AE7"/>
</svg>