<svg xmlns="http://www.w3.org/2000/svg" width="16" height="16" viewBox="0 0 16 16" fill="none"><path d="M8.00033 1.33203C5.06699 1.33203 2.66699 3.73203 2.66699 6.66536C2.66699 10.2654 7.33366 14.332 7.53366 14.532C7.66699 14.5987 7.86699 14.6654 8.00033 14.6654C8.13366 14.6654 8.33366 14.5987 8.46699 14.532C8.66699 14.332 13.3337 10.2654 13.3337 6.66536C13.3337 3.73203 10.9337 1.33203 8.00033 1.33203ZM8.00033 13.132C6.60033 11.7987 4.00033 8.93203 4.00033 6.66536C4.00033 4.46536 5.80033 2.66536 8.00033 2.66536C10.2003 2.66536 12.0003 4.46536 12.0003 6.66536C12.0003 8.86536 9.40032 11.7987 8.00033 13.132ZM8.00033 3.9987C6.53366 3.9987 5.33366 5.1987 5.33366 6.66536C5.33366 8.13203 6.53366 9.33203 8.00033 9.33203C9.46699 9.33203 10.667 8.13203 10.667 6.66536C10.667 5.1987 9.46699 3.9987 8.00033 3.9987ZM8.00033 7.9987C7.26699 7.9987 6.66699 7.3987 6.66699 6.66536C6.66699 5.93203 7.26699 5.33203 8.00033 5.33203C8.73366 5.33203 9.33366 5.93203 9.33366 6.66536C9.33366 7.3987 8.73366 7.9987 8.00033 7.9987Z" fill="#595959"/></svg>