<svg xmlns="http://www.w3.org/2000/svg" width="24" height="24" viewBox="0 0 24 24" fill="none">
<path d="M12.0001 14.3996C13.3256 14.3996 14.4001 13.3251 14.4001 11.9996C14.4001 10.6741 13.3256 9.59961 12.0001 9.59961C10.6746 9.59961 9.6001 10.6741 9.6001 11.9996C9.6001 13.3251 10.6746 14.3996 12.0001 14.3996Z" fill="#2B2B2B"/>
<path fill-rule="evenodd" clip-rule="evenodd" d="M0.549316 11.9996C2.07842 7.1311 6.62678 3.59961 12 3.59961C17.3731 3.59961 21.9215 7.13107 23.4506 11.9996C21.9215 16.8681 17.3731 20.3996 11.9999 20.3996C6.62678 20.3996 2.07845 16.8681 0.549316 11.9996ZM16.8 11.9996C16.8 14.6505 14.6509 16.7996 12 16.7996C9.34904 16.7996 7.20001 14.6505 7.20001 11.9996C7.20001 9.34864 9.34904 7.19961 12 7.19961C14.6509 7.19961 16.8 9.34864 16.8 11.9996Z" fill="#2B2B2B"/>
</svg>