<svg xmlns="http://www.w3.org/2000/svg" width="16" height="16" viewBox="0 0 16 16" fill="none">
  <path d="M7.23778 2.34185C7.47726 1.6048 8.51999 1.6048 8.75943 2.34185L9.61511 4.97528C9.72223 5.30491 10.0294 5.52807 10.376 5.52807H13.145C13.9199 5.52807 14.2422 6.51976 13.6152 6.97528L11.375 8.60283C11.0946 8.80651 10.9773 9.16763 11.0844 9.49723L11.9401 12.1307C12.1795 12.8677 11.336 13.4807 10.709 13.0252L8.46887 11.3976C8.18847 11.1939 7.80878 11.1939 7.52839 11.3976L5.28826 13.0252C4.66129 13.4807 3.81771 12.8677 4.05719 12.1307L4.91284 9.49723C5.01994 9.16763 4.90261 8.80651 4.62223 8.60283L2.38209 6.97528C1.75511 6.51976 2.07734 5.52807 2.85231 5.52807H5.62127C5.96786 5.52807 6.27502 5.30491 6.38212 4.97528L7.23778 2.34185Z" fill="#B6910E"/>
</svg>