<svg xmlns="http://www.w3.org/2000/svg" width="24" height="24" viewBox="0 0 24 24" fill="none">
  <path d="M23.9952 12.9157C23.9665 12.251 23.3162 11.7202 22.0586 11.3377C21.0831 11.046 19.8446 10.8691 18.5057 10.8404V5.73816C18.5009 5.65209 18.477 5.5708 18.434 5.49907C18.3001 4.92047 17.6545 4.45185 16.5117 4.10756C15.4357 3.7824 14.0299 3.60547 12.5523 3.60547C11.0795 3.60547 9.68799 3.7824 8.6312 4.10756C7.76569 4.37534 6.72803 4.87265 6.72803 5.7286C6.72803 5.7812 6.73282 5.8338 6.74238 5.8864L6.79498 8.06692C3.68679 7.47397 0.688583 9.51581 0.100418 12.6192C0.0334728 12.9731 0 13.3269 0 13.6856C0 16.8416 2.56784 19.4094 5.72385 19.4094C7.03885 19.4094 8.31082 18.9599 9.32935 18.1279C10.2236 18.3383 11.2756 18.453 12.3897 18.4626C12.6336 19.7872 15.5027 20.3945 18.1757 20.3945C19.6485 20.3945 21.04 20.2128 22.0968 19.8828C22.9623 19.615 24 19.1129 24 18.257V13.0065C24 12.9779 24 12.9444 23.9952 12.9157ZM17.5063 8.38252C17.5063 8.44468 17.2767 8.77463 16.2391 9.09023C15.2684 9.38192 13.9247 9.55406 12.5571 9.55406C11.376 9.55406 10.2188 9.42974 9.30066 9.19543C9.28631 9.19064 9.27675 9.19065 9.2624 9.18586C8.80813 8.82723 8.30604 8.54032 7.76569 8.33948L7.73222 6.991C8.06216 7.15837 8.40646 7.29226 8.76509 7.3879C9.80275 7.68915 11.1464 7.85173 12.5571 7.85173C14.0299 7.85173 15.4405 7.6748 16.5164 7.34964C16.8751 7.24444 17.2241 7.10577 17.5541 6.93362V8.18646C17.5015 8.25341 17.5063 8.31557 17.5063 8.38252ZM8.91811 5.03045C9.88404 4.73398 11.1751 4.56662 12.5523 4.56662C13.9199 4.56662 15.2636 4.73398 16.2343 5.03045C17.272 5.34605 17.5015 5.67122 17.5015 5.73338C17.5015 5.80033 17.2672 6.13027 16.2295 6.44109C15.2588 6.73278 13.9199 6.90015 12.5523 6.90015C11.2325 6.90015 9.97968 6.74713 9.02809 6.46978C8 6.17331 7.71309 5.84815 7.68918 5.74295C7.68918 5.73338 7.6844 5.73338 7.6844 5.73338C7.68918 5.64253 7.90915 5.33649 8.91811 5.03045ZM8.93246 17.2146C6.98625 18.9838 3.96892 18.8452 2.19964 16.899C0.430365 14.9527 0.569038 11.9354 2.51524 10.1661C3.39032 9.36757 4.53796 8.92764 5.72385 8.92764C6.20203 8.92764 6.67543 8.99937 7.13449 9.13804C8.79378 9.65448 10.0418 11.0316 10.3957 12.7292C10.4579 13.0448 10.4913 13.37 10.4913 13.6903C10.4961 15.034 9.92708 16.3108 8.93246 17.2146ZM10.147 17.3198C10.5344 16.8464 10.8452 16.3156 11.0652 15.7465C11.4716 15.78 11.8924 15.8039 12.3323 15.8087V15.8948L12.361 17.5158C11.6198 17.5062 10.8787 17.4393 10.147 17.3198ZM11.4238 13.1213C11.7011 13.1404 11.9928 13.15 12.2893 13.1548L12.318 14.8475C11.9833 14.8428 11.6533 14.8284 11.3377 14.8045C11.4094 14.4363 11.4477 14.0585 11.4477 13.6856C11.4477 13.4991 11.4381 13.3126 11.4238 13.1213ZM12.6001 12.2032C12.5858 12.2032 12.5666 12.2032 12.5523 12.2032C12.0932 12.2032 11.6485 12.1841 11.2373 12.1554C11.0556 11.5146 10.7687 10.9121 10.3814 10.3765C11.0986 10.4674 11.8207 10.5152 12.5475 10.5152C14.0251 10.5152 15.4357 10.3383 16.5117 10.0131C16.8703 9.90792 17.2146 9.76925 17.5445 9.60188V10.8547C15.4931 10.9121 13.3843 11.3425 12.6001 12.2032ZM13.2313 12.9635C13.2313 12.9587 13.2313 12.9539 13.2361 12.9444C13.2791 12.8153 13.6186 12.4997 14.6085 12.2223C15.5362 11.9593 16.746 11.8159 18.0179 11.8159H18.0992C19.4668 11.8159 20.8057 11.9737 21.7812 12.2701C22.7998 12.5762 23.0389 12.8918 23.0436 12.9635V12.9683C23.0389 13.04 22.7998 13.37 21.7382 13.6856C20.7579 13.9773 19.4668 14.1351 18.104 14.1351C16.7842 14.1351 15.5314 13.982 14.5798 13.7095C13.5517 13.413 13.2696 13.0831 13.2409 12.9826C13.2313 12.9635 13.2313 12.9635 13.2313 12.9635ZM21.8195 18.9743C20.8536 19.2755 19.5577 19.4429 18.1805 19.4429C16.7986 19.4429 15.5075 19.2803 14.5511 18.9886C13.5421 18.6778 13.3317 18.3574 13.3317 18.2857C13.3317 18.2809 13.3317 18.2809 13.3317 18.2761L13.3078 16.8894C13.6904 17.0759 14.0873 17.2193 14.4985 17.3245C15.5027 17.5875 16.7794 17.7358 18.0897 17.7358C19.5672 17.7358 20.9683 17.5588 22.0394 17.2337C22.3885 17.1285 22.7233 16.9898 23.0436 16.8272V18.2618H23.0484C23.0484 18.3287 22.8285 18.6587 21.8195 18.9743ZM23.0532 15.4548H23.0484C23.0484 15.5027 23.0197 15.56 23.0197 15.6126C23.0197 15.6796 22.795 16.0048 21.7621 16.3204C20.7818 16.6168 19.4764 16.7794 18.0944 16.7794C15.4453 16.7794 13.6617 16.1817 13.2887 15.7178L13.2839 15.3162L13.2648 14.2163C13.5995 14.3837 13.9486 14.5176 14.3072 14.618C15.3449 14.9193 16.6886 15.0819 18.0992 15.0819C19.5529 15.0819 20.9396 14.9097 22.006 14.5941C22.3694 14.4937 22.7185 14.355 23.0532 14.1829V15.4548Z" fill="#5D5FEF"/>
  <path d="M7.46424 14.3649C7.24428 13.5854 6.53178 13.0499 5.72365 13.0499C5.25503 13.0499 4.87248 12.6721 4.87248 12.2035C4.87727 11.7301 5.25503 11.3523 5.72365 11.3523C6.19227 11.3523 6.57482 11.7349 6.57482 12.2035C6.57482 12.4665 6.79 12.6817 7.053 12.6817C7.316 12.6817 7.53119 12.4665 7.53119 12.2035C7.53119 11.3954 6.99562 10.6829 6.21618 10.4629V10.2477C6.21618 9.98471 6.001 9.76953 5.738 9.76953C5.475 9.76953 5.25981 9.98471 5.25981 10.2477V10.4533C4.29866 10.7116 3.72484 11.7014 3.98306 12.6625C4.19346 13.4515 4.90596 14.0015 5.72365 14.0015C6.19227 14.0015 6.57482 14.3792 6.57482 14.8478C6.57482 15.3165 6.19705 15.699 5.72843 15.699C5.25981 15.699 4.87727 15.3212 4.87727 14.8526C4.87727 14.5896 4.66208 14.3744 4.39908 14.3744C4.13608 14.3744 3.9209 14.5896 3.9209 14.8526C3.92568 15.6703 4.47081 16.3828 5.25981 16.598V17.014C5.25981 17.277 5.475 17.4922 5.738 17.4922C6.001 17.4922 6.21618 17.277 6.21618 17.014V16.5932C7.17733 16.3207 7.73681 15.326 7.46424 14.3649Z" fill="#5D5FEF"/>
</svg>