<svg width="20" height="20" viewBox="0 0 20 20" fill="none" xmlns="http://www.w3.org/2000/svg">
<g id="Frame">
<path id="Vector" d="M18.2008 4.67813L15.3219 1.79923C15.1482 1.62456 14.9416 1.48608 14.714 1.3918C14.4864 1.29753 14.2424 1.24933 13.9961 1.25001H3.75C3.08696 1.25001 2.45107 1.5134 1.98223 1.98224C1.51339 2.45108 1.25 3.08697 1.25 3.75001V16.25C1.25 16.913 1.51339 17.5489 1.98223 18.0178C2.45107 18.4866 3.08696 18.75 3.75 18.75H16.25C16.913 18.75 17.5489 18.4866 18.0178 18.0178C18.4866 17.5489 18.75 16.913 18.75 16.25V6.00391C18.7507 5.75759 18.7025 5.51357 18.6082 5.286C18.5139 5.05843 18.3754 4.85182 18.2008 4.67813ZM4.6875 4.37501H11.5625C11.6454 4.37501 11.7249 4.40793 11.7835 4.46654C11.8421 4.52514 11.875 4.60463 11.875 4.68751V6.56251C11.875 6.64539 11.8421 6.72487 11.7835 6.78348C11.7249 6.84208 11.6454 6.87501 11.5625 6.87501H4.6875C4.60462 6.87501 4.52513 6.84208 4.46653 6.78348C4.40792 6.72487 4.375 6.64539 4.375 6.56251V4.68751C4.375 4.60463 4.40792 4.52514 4.46653 4.46654C4.52513 4.40793 4.60462 4.37501 4.6875 4.37501ZM10.1465 16.8715C9.51662 16.9011 8.89254 16.7394 8.35625 16.4077C7.81996 16.0761 7.39655 15.5899 7.14164 15.0132C6.88674 14.4365 6.81227 13.7961 6.92803 13.1763C7.04378 12.5564 7.34434 11.9861 7.79021 11.5402C8.23609 11.0943 8.80641 10.7938 9.42626 10.678C10.0461 10.5623 10.6865 10.6367 11.2632 10.8917C11.8399 11.1466 12.3261 11.57 12.6577 12.1063C12.9894 12.6425 13.1511 13.2666 13.1215 13.8965C13.0845 14.6736 12.7591 15.409 12.209 15.9591C11.6589 16.5092 10.9236 16.8345 10.1465 16.8715Z" fill="#8182F3"/>
<path id="Vector_2" d="M10 15.625C11.0355 15.625 11.875 14.7855 11.875 13.75C11.875 12.7145 11.0355 11.875 10 11.875C8.96447 11.875 8.125 12.7145 8.125 13.75C8.125 14.7855 8.96447 15.625 10 15.625Z" fill="#8182F3"/>
</g>
</svg>
