<svg xmlns="http://www.w3.org/2000/svg" width="16" height="16" viewBox="0 0 16 16" fill="none">
  <path fill-rule="evenodd" clip-rule="evenodd" d="M6.4001 3.19961C4.63279 3.19961 3.2001 4.6323 3.2001 6.39961C3.2001 8.16689 4.63279 9.59961 6.4001 9.59961C8.16738 9.59961 9.6001 8.16689 9.6001 6.39961C9.6001 4.6323 8.16738 3.19961 6.4001 3.19961ZM1.6001 6.39961C1.6001 3.74864 3.74913 1.59961 6.4001 1.59961C9.05106 1.59961 11.2001 3.74864 11.2001 6.39961C11.2001 7.43627 10.8715 8.39617 10.3127 9.18081L14.1658 13.0339C14.4782 13.3463 14.4782 13.8529 14.1658 14.1653C13.8534 14.4777 13.3468 14.4777 13.0344 14.1653L9.1813 10.3122C8.39666 10.871 7.43676 11.1996 6.4001 11.1996C3.74913 11.1996 1.6001 9.05057 1.6001 6.39961Z" fill="#595959"/>
</svg>