<svg xmlns="http://www.w3.org/2000/svg" width="33" height="33" viewBox="0 0 33 33" fill="none">
  <path d="M16.5002 19.7992C18.3228 19.7992 19.8002 18.3218 19.8002 16.4992C19.8002 14.6767 18.3228 13.1992 16.5002 13.1992C14.6777 13.1992 13.2002 14.6767 13.2002 16.4992C13.2002 18.3218 14.6777 19.7992 16.5002 19.7992Z" fill="#389437"/>
  <path fill-rule="evenodd" clip-rule="evenodd" d="M0.755859 16.4992C2.85838 9.80502 9.11238 4.94922 16.5005 4.94922C23.8886 4.94922 30.1426 9.80497 32.2452 16.4992C30.1426 23.1934 23.8886 28.0492 16.5005 28.0492C9.11238 28.0492 2.85841 23.1934 0.755859 16.4992ZM23.1005 16.4992C23.1005 20.1442 20.1456 23.0992 16.5005 23.0992C12.8555 23.0992 9.90057 20.1442 9.90057 16.4992C9.90057 12.8541 12.8555 9.89922 16.5005 9.89922C20.1456 9.89922 23.1005 12.8541 23.1005 16.4992Z" fill="#389437"/>
</svg>