<svg width="16" height="16" viewBox="0 0 16 16" fill="none" xmlns="http://www.w3.org/2000/svg">
<g id="Frame">
<path id="Vector" d="M4.66536 2.66536C4.66536 2.31174 4.80584 1.9726 5.05589 1.72256C5.30594 1.47251 5.64508 1.33203 5.9987 1.33203H9.9987C10.3523 1.33203 10.6915 1.47251 10.9415 1.72256C11.1916 1.9726 11.332 2.31174 11.332 2.66536V3.9987H13.9987C14.1755 3.9987 14.3451 4.06894 14.4701 4.19396C14.5951 4.31898 14.6654 4.48855 14.6654 4.66536C14.6654 4.84218 14.5951 5.01174 14.4701 5.13677C14.3451 5.26179 14.1755 5.33203 13.9987 5.33203H13.286L12.708 13.4267C12.6841 13.7631 12.5336 14.0779 12.2868 14.3077C12.04 14.5376 11.7153 14.6654 11.378 14.6654H4.6187C4.28146 14.6654 3.95674 14.5376 3.70995 14.3077C3.46317 14.0779 3.31264 13.7631 3.2887 13.4267L2.71203 5.33203H1.9987C1.82189 5.33203 1.65232 5.26179 1.52729 5.13677C1.40227 5.01174 1.33203 4.84218 1.33203 4.66536C1.33203 4.48855 1.40227 4.31898 1.52729 4.19396C1.65232 4.06894 1.82189 3.9987 1.9987 3.9987H4.66536V2.66536ZM5.9987 3.9987H9.9987V2.66536H5.9987V3.9987ZM4.04803 5.33203L4.61936 13.332H11.3787L11.95 5.33203H4.04803ZM6.66536 6.66536C6.84218 6.66536 7.01174 6.7356 7.13677 6.86063C7.26179 6.98565 7.33203 7.15522 7.33203 7.33203V11.332C7.33203 11.5088 7.26179 11.6784 7.13677 11.8034C7.01174 11.9285 6.84218 11.9987 6.66536 11.9987C6.48855 11.9987 6.31898 11.9285 6.19396 11.8034C6.06894 11.6784 5.9987 11.5088 5.9987 11.332V7.33203C5.9987 7.15522 6.06894 6.98565 6.19396 6.86063C6.31898 6.7356 6.48855 6.66536 6.66536 6.66536ZM9.33203 6.66536C9.50884 6.66536 9.67841 6.7356 9.80344 6.86063C9.92846 6.98565 9.9987 7.15522 9.9987 7.33203V11.332C9.9987 11.5088 9.92846 11.6784 9.80344 11.8034C9.67841 11.9285 9.50884 11.9987 9.33203 11.9987C9.15522 11.9987 8.98565 11.9285 8.86063 11.8034C8.7356 11.6784 8.66536 11.5088 8.66536 11.332V7.33203C8.66536 7.15522 8.7356 6.98565 8.86063 6.86063C8.98565 6.7356 9.15522 6.66536 9.33203 6.66536Z" fill="#B71F3A"/>
</g>
</svg>
