<svg width="16" height="16" viewBox="0 0 16 16" fill="none" xmlns="http://www.w3.org/2000/svg">
<g id="Frame">
<path id="Vector (Stroke)" fill-rule="evenodd" clip-rule="evenodd" d="M8 1.91797C8.41421 1.91797 8.75 2.25376 8.75 2.66797V9.33463C8.75 9.74885 8.41421 10.0846 8 10.0846C7.58579 10.0846 7.25 9.74885 7.25 9.33463V2.66797C7.25 2.25376 7.58579 1.91797 8 1.91797Z" fill="#888888"/>
<path id="Vector (Stroke)_2" fill-rule="evenodd" clip-rule="evenodd" d="M7.46967 2.13764C7.76256 1.84475 8.23744 1.84475 8.53033 2.13764L11.197 4.80431C11.4899 5.0972 11.4899 5.57207 11.197 5.86497C10.9041 6.15786 10.4292 6.15786 10.1363 5.86497L7.46967 3.1983C7.17678 2.90541 7.17678 2.43053 7.46967 2.13764Z" fill="#888888"/>
<path id="Vector (Stroke)_3" fill-rule="evenodd" clip-rule="evenodd" d="M8.52903 2.13764C8.82192 2.43053 8.82192 2.90541 8.52903 3.1983L5.86236 5.86497C5.56947 6.15786 5.09459 6.15786 4.8017 5.86497C4.50881 5.57207 4.50881 5.0972 4.8017 4.80431L7.46837 2.13764C7.76126 1.84475 8.23613 1.84475 8.52903 2.13764Z" fill="#888888"/>
<path id="Vector (Stroke)_4" fill-rule="evenodd" clip-rule="evenodd" d="M1.91797 13.332C1.91797 12.9178 2.25376 12.582 2.66797 12.582H13.3346C13.7488 12.582 14.0846 12.9178 14.0846 13.332C14.0846 13.7462 13.7488 14.082 13.3346 14.082H2.66797C2.25376 14.082 1.91797 13.7462 1.91797 13.332Z" fill="#888888"/>
</g>
</svg>
