<svg xmlns="http://www.w3.org/2000/svg" width="32" height="32" viewBox="0 0 32 32" fill="none">
  <rect x="0.5" y="0.5" width="31" height="31" rx="15.5" fill="transparent"/>
  <path d="M15.8652 14.7324C17.8354 14.7324 19.4326 13.1352 19.4326 11.165C19.4326 9.19483 17.8354 7.59766 15.8652 7.59766C13.895 7.59766 12.2979 9.19483 12.2979 11.165C12.2979 13.1352 13.895 14.7324 15.8652 14.7324Z" fill="url(#paint0_radial_2228_6942)"/>
  <path d="M15.8652 17.1094C19.8056 17.1094 23 20.3037 23 24.2441H8.73047C8.73047 20.3037 11.9248 17.1094 15.8652 17.1094Z" fill="url(#paint1_radial_2228_6942)"/>
  <rect x="0.5" y="0.5" width="31" height="31" rx="15.5" stroke="url(#paint2_radial_2228_6942)"/>
  <defs>
    <radialGradient id="paint0_radial_2228_6942" cx="0" cy="0" r="1" gradientUnits="userSpaceOnUse" gradientTransform="translate(19.7002 7.18285) rotate(134.499) scale(11.2824 48.9043)">
      <stop stop-color="#F178B6"/>
      <stop offset="0.419268" stop-color="#5D5FEF"/>
      <stop offset="1" stop-color="#F178B6"/>
    </radialGradient>
    <radialGradient id="paint1_radial_2228_6942" cx="0" cy="0" r="1" gradientUnits="userSpaceOnUse" gradientTransform="translate(23.5351 16.6946) rotate(153.032) scale(17.745 62.1871)">
      <stop stop-color="#F178B6"/>
      <stop offset="0.419268" stop-color="#5D5FEF"/>
      <stop offset="1" stop-color="#F178B6"/>
    </radialGradient>
    <radialGradient id="paint2_radial_2228_6942" cx="0" cy="0" r="1" gradientUnits="userSpaceOnUse" gradientTransform="translate(33.2 -1.86046) rotate(134.499) scale(50.6023 219.34)">
      <stop stop-color="#F178B6"/>
      <stop offset="0.419268" stop-color="#5D5FEF"/>
      <stop offset="1" stop-color="#F178B6"/>
    </radialGradient>
  </defs>
</svg>