<svg xmlns="http://www.w3.org/2000/svg" width="24" height="24" viewBox="0 0 24 24" fill="none">
  <path d="M6.22518 4.81047C5.83465 4.41995 5.20149 4.41995 4.81096 4.81047C4.42044 5.201 4.42044 5.83416 4.81096 6.22469L10.5857 11.9994L4.81102 17.7741C4.4205 18.1646 4.4205 18.7978 4.81102 19.1883C5.20155 19.5788 5.83471 19.5788 6.22523 19.1883L11.9999 13.4136L17.7746 19.1883C18.1651 19.5788 18.7983 19.5788 19.1888 19.1883C19.5793 18.7978 19.5793 18.1646 19.1888 17.7741L13.4141 11.9994L19.1889 6.22469C19.5794 5.83416 19.5794 5.201 19.1889 4.81047C18.7984 4.41995 18.1652 4.41995 17.7747 4.81047L11.9999 10.5852L6.22518 4.81047Z" fill="#2B2B2B"/>
</svg>